<svg width="40" height="41" viewBox="0 0 40 41" fill="none" xmlns="http://www.w3.org/2000/svg">
<g clip-path="url(#clip0_4_208)">
<path fill-rule="evenodd" clip-rule="evenodd" d="M0 20.69C0 30.6334 7.22167 38.9017 16.6667 40.5784V26.1334H11.6667V20.5784H16.6667V16.1334C16.6667 11.1334 19.8883 8.3567 24.445 8.3567C25.8883 8.3567 27.445 8.57837 28.8883 8.80004V13.9117H26.3333C23.8883 13.9117 23.3333 15.1334 23.3333 16.69V20.5784H28.6667L27.7783 26.1334H23.3333V40.5784C32.7783 38.9017 40 30.635 40 20.69C40 9.62837 31 0.578369 20 0.578369C9 0.578369 0 9.62837 0 20.69Z" fill="white"/>
</g>
<defs>
<clipPath id="clip0_4_208">
<rect width="40" height="40" fill="white" transform="translate(0 0.578369)"/>
</clipPath>
</defs>
</svg>
