<svg width="55" height="56" viewBox="0 0 55 56" fill="none" xmlns="http://www.w3.org/2000/svg">
<path d="M27.5 20.9187C23.5576 20.9187 20.3403 24.136 20.3403 28.0784C20.3403 32.0208 23.5576 35.238 27.5 35.238C31.4424 35.238 34.6597 32.0208 34.6597 28.0784C34.6597 24.136 31.4424 20.9187 27.5 20.9187ZM48.9736 28.0784C48.9736 25.1135 49.0005 22.1755 48.834 19.2161C48.6675 15.7786 47.8833 12.7278 45.3696 10.2141C42.8506 7.69508 39.8052 6.91627 36.3677 6.74977C33.4028 6.58326 30.4648 6.61012 27.5054 6.61012C24.5405 6.61012 21.6025 6.58326 18.6431 6.74977C15.2056 6.91627 12.1548 7.70045 9.64111 10.2141C7.12207 12.7332 6.34326 15.7786 6.17675 19.2161C6.01025 22.1809 6.0371 25.1189 6.0371 28.0784C6.0371 31.0378 6.01025 33.9812 6.17675 36.9407C6.34326 40.3782 7.12744 43.4289 9.64111 45.9426C12.1602 48.4617 15.2056 49.2405 18.6431 49.407C21.6079 49.5735 24.5459 49.5466 27.5054 49.5466C30.4702 49.5466 33.4082 49.5735 36.3677 49.407C39.8052 49.2405 42.856 48.4563 45.3696 45.9426C47.8887 43.4236 48.6675 40.3782 48.834 36.9407C49.0059 33.9812 48.9736 31.0432 48.9736 28.0784ZM27.5 39.0945C21.4038 39.0945 16.4839 34.1746 16.4839 28.0784C16.4839 21.9822 21.4038 17.0623 27.5 17.0623C33.5962 17.0623 38.5161 21.9822 38.5161 28.0784C38.5161 34.1746 33.5962 39.0945 27.5 39.0945ZM38.9673 19.1838C37.5439 19.1838 36.3945 18.0344 36.3945 16.6111C36.3945 15.1878 37.5439 14.0383 38.9673 14.0383C40.3906 14.0383 41.54 15.1878 41.54 16.6111C41.5405 16.9491 41.4742 17.2838 41.3451 17.5961C41.2159 17.9085 41.0264 18.1923 40.7874 18.4312C40.5485 18.6702 40.2647 18.8597 39.9523 18.9889C39.64 19.118 39.3053 19.1843 38.9673 19.1838Z" fill="white"/>
</svg>
