<svg width="52" height="52" viewBox="0 0 52 52" fill="none" xmlns="http://www.w3.org/2000/svg">
<path d="M43.5423 15.1134C37.322 5.6784 24.6221 2.8734 14.7733 8.7384C5.18359 14.6034 2.07343 27.3534 8.29376 36.7884L8.81212 37.5534L6.73868 45.2034L14.5141 43.1634L15.2916 43.6734C18.661 45.4584 22.2895 46.4784 25.918 46.4784C29.8057 46.4784 33.6934 45.4584 37.0628 43.4184C46.6525 37.2984 49.5035 24.8034 43.5423 15.1134ZM38.0995 34.7484C37.0628 36.2784 35.7669 37.2984 33.9526 37.5534C32.9159 37.5534 31.62 38.0634 26.4364 36.0234C22.0303 33.9834 18.4018 30.6684 15.81 26.8434C14.2549 25.0584 13.4774 22.7634 13.2182 20.4684C13.2182 18.4284 13.9957 16.6434 15.2916 15.3684C15.81 14.8584 16.3284 14.6034 16.8467 14.6034H18.1426C18.661 14.6034 19.1793 14.6034 19.4385 15.6234C19.9569 16.8984 21.2528 19.9584 21.2528 20.2134C21.512 20.4684 21.512 20.9784 21.2528 21.2334C21.512 21.7434 21.2528 22.2534 20.9936 22.5084C20.7344 22.7634 20.4752 23.2734 20.2161 23.5284C19.6977 23.7834 19.4385 24.2934 19.6977 24.8034C20.7344 26.3334 22.0303 27.8634 23.3262 29.1384C24.8813 30.4134 26.4364 31.4334 28.2507 32.1984C28.769 32.4534 29.2874 32.4534 29.5466 31.9434C29.8057 31.4334 31.1016 30.1584 31.62 29.6484C32.1384 29.1384 32.3975 29.1384 32.9159 29.3934L37.0628 31.4334C37.5812 31.6884 38.0995 31.9434 38.3587 32.1984C38.6179 32.9634 38.6179 33.9834 38.0995 34.7484Z" fill="white"/>
</svg>
